HIERARCHY
ROOT Hips
{
  OFFSET 5.80788e-005 67.184 3.4734
  CHANNELS 6 Xposition Yposition Zposition Zrotation Xrotation Yrotation
  JOINT Chest
  {
    OFFSET 0 8.7983 -4.7612
    CHANNELS 6 Xposition Yposition Zposition Zrotation Xrotation Yrotation
    JOINT Chest2
    {
      OFFSET 0 8.0291 0.4195
      CHANNELS 6 Xposition Yposition Zposition Zrotation Xrotation Yrotation
      JOINT Chest3
      {
        OFFSET 0 9.9351 -2.2114
        CHANNELS 6 Xposition Yposition Zposition Zrotation Xrotation Yrotation
        JOINT Neck
        {
          OFFSET 0 22.3885 -0.4656
          CHANNELS 6 Xposition Yposition Zposition Zrotation Xrotation Yrotation
          JOINT Head
          {
            OFFSET -0.0001 12.643 3.4389
            CHANNELS 6 Xposition Yposition Zposition Zrotation Xrotation Yrotation
            End Site
            {
              OFFSET 0.0001 17.6655 0.5274
            }
          }
        }
        JOINT LeftCollar
        {
          OFFSET 2.2603 21.606 7.4023
          CHANNELS 6 Xposition Yposition Zposition Zrotation Xrotation Yrotation
          JOINT LeftShoulder
          {
            OFFSET 13.5163 -1.1332 -5.0146
            CHANNELS 6 Xposition Yposition Zposition Zrotation Xrotation Yrotation
            JOINT LeftElbow
            {
              OFFSET -0.0995 -28.05 -0.2431
              CHANNELS 6 Xposition Yposition Zposition Zrotation Xrotation Yrotation
              JOINT LeftWrist
              {
                OFFSET 0.0679 -23.3996 -0.1402
                CHANNELS 6 Xposition Yposition Zposition Zrotation Xrotation Yrotation
                JOINT LeftFinger1
                {
                  OFFSET 0.7932 -9.069 2.5189
                  CHANNELS 6 Xposition Yposition Zposition Zrotation Xrotation Yrotation
                  JOINT LeftFinger11
                  {
                    OFFSET -0.8272 -3.3923 0.5977
                    CHANNELS 6 Xposition Yposition Zposition Zrotation Xrotation Yrotation
                    JOINT LeftFinger12
                    {
                      OFFSET -0.5649 -2.3158 0.4082
                      CHANNELS 6 Xposition Yposition Zposition Zrotation Xrotation Yrotation
                      End Site
                      {
                        OFFSET -0.4919 -1.6479 0.2673
                      }
                    }
                  }
                }
                JOINT LeftFinger2
                {
                  OFFSET 0.9159 -9.2044 0.2193
                  CHANNELS 6 Xposition Yposition Zposition Zrotation Xrotation Yrotation
                  JOINT LeftFinger21
                  {
                    OFFSET 0.0117 -4.1944 -0.0248
                    CHANNELS 6 Xposition Yposition Zposition Zrotation Xrotation Yrotation
                    JOINT LeftFinger22
                    {
                      OFFSET 0.0071 -2.3249 -0.0142
                      CHANNELS 6 Xposition Yposition Zposition Zrotation Xrotation Yrotation
                      End Site
                      {
                        OFFSET -0.1475 -2.0882 0.0028
                      }
                    }
                  }
                }
                JOINT LeftFinger3
                {
                  OFFSET 0.6113 -8.7231 -2.0637
                  CHANNELS 6 Xposition Yposition Zposition Zrotation Xrotation Yrotation
                  JOINT LeftFinger31
                  {
                    OFFSET -0.1927 -3.8059 -0.2383
                    CHANNELS 6 Xposition Yposition Zposition Zrotation Xrotation Yrotation
                    JOINT LeftFinger32
                    {
                      OFFSET -0.1091 -2.1688 -0.1362
                      CHANNELS 6 Xposition Yposition Zposition Zrotation Xrotation Yrotation
                      End Site
                      {
                        OFFSET -0.2358 -1.9176 -0.0906
                      }
                    }
                  }
                }
                JOINT LeftFinger4
                {
                  OFFSET -0.6151 -8.0947 -3.5641
                  CHANNELS 6 Xposition Yposition Zposition Zrotation Xrotation Yrotation
                  JOINT LeftFinger41
                  {
                    OFFSET -0.4882 -2.341 -0.6462
                    CHANNELS 6 Xposition Yposition Zposition Zrotation Xrotation Yrotation
                    JOINT LeftFinger42
                    {
                      OFFSET -0.3575 -1.7167 -0.4742
                      CHANNELS 6 Xposition Yposition Zposition Zrotation Xrotation Yrotation
                      End Site
                      {
                        OFFSET -0.4187 -1.5237 -0.3496
                      }
                    }
                  }
                }
                JOINT LeftFinger0
                {
                  OFFSET -1.42 -1.8761 1.4223
                  CHANNELS 6 Xposition Yposition Zposition Zrotation Xrotation Yrotation
                  JOINT LeftFinger01
                  {
                    OFFSET -1.1471 -3.4929 2.6334
                    CHANNELS 6 Xposition Yposition Zposition Zrotation Xrotation Yrotation
                    JOINT LeftFinger02
                    {
                      OFFSET -0.823 -2.3 1.6571
                      CHANNELS 6 Xposition Yposition Zposition Zrotation Xrotation Yrotation
                      End Site
                      {
                        OFFSET -0.5822 -1.6914 1.1582
                      }
                    }
                  }
                }
              }
            }
          }
        }
        JOINT RightCollar
        {
          OFFSET -2.2603 21.606 7.4023
          CHANNELS 6 Xposition Yposition Zposition Zrotation Xrotation Yrotation
          JOINT RightShoulder
          {
            OFFSET -13.5187 -1.1334 -5.0155
            CHANNELS 6 Xposition Yposition Zposition Zrotation Xrotation Yrotation
            JOINT RightElbow
            {
              OFFSET 0.0994 -28.0499 -0.2431
              CHANNELS 6 Xposition Yposition Zposition Zrotation Xrotation Yrotation
              JOINT RightWrist
              {
                OFFSET -0.0679 -23.3996 -0.1402
                CHANNELS 6 Xposition Yposition Zposition Zrotation Xrotation Yrotation
                JOINT RightFinger1
                {
                  OFFSET -0.7932 -9.0691 2.5189
                  CHANNELS 6 Xposition Yposition Zposition Zrotation Xrotation Yrotation
                  JOINT RightFinger11
                  {
                    OFFSET 0.8272 -3.3923 0.5977
                    CHANNELS 6 Xposition Yposition Zposition Zrotation Xrotation Yrotation
                    JOINT RightFinger12
                    {
                      OFFSET 0.565 -2.3158 0.4082
                      CHANNELS 6 Xposition Yposition Zposition Zrotation Xrotation Yrotation
                      End Site
                      {
                        OFFSET 0.4919 -1.6479 0.2673
                      }
                    }
                  }
                }
                JOINT RightFinger2
                {
                  OFFSET -0.916 -9.2044 0.2193
                  CHANNELS 6 Xposition Yposition Zposition Zrotation Xrotation Yrotation
                  JOINT RightFinger21
                  {
                    OFFSET -0.0117 -4.1944 -0.0248
                    CHANNELS 6 Xposition Yposition Zposition Zrotation Xrotation Yrotation
                    JOINT RightFinger22
                    {
                      OFFSET -0.0071 -2.3249 -0.0142
                      CHANNELS 6 Xposition Yposition Zposition Zrotation Xrotation Yrotation
                      End Site
                      {
                        OFFSET 0.1475 -2.0882 0.0028
                      }
                    }
                  }
                }
                JOINT RightFinger3
                {
                  OFFSET -0.6113 -8.7231 -2.0637
                  CHANNELS 6 Xposition Yposition Zposition Zrotation Xrotation Yrotation
                  JOINT RightFinger31
                  {
                    OFFSET 0.1927 -3.8059 -0.2383
                    CHANNELS 6 Xposition Yposition Zposition Zrotation Xrotation Yrotation
                    JOINT RightFinger32
                    {
                      OFFSET 0.1091 -2.1688 -0.1362
                      CHANNELS 6 Xposition Yposition Zposition Zrotation Xrotation Yrotation
                      End Site
                      {
                        OFFSET 0.2358 -1.9176 -0.0906
                      }
                    }
                  }
                }
                JOINT RightFinger4
                {
                  OFFSET 0.6151 -8.0947 -3.564
                  CHANNELS 6 Xposition Yposition Zposition Zrotation Xrotation Yrotation
                  JOINT RightFinger41
                  {
                    OFFSET 0.4882 -2.341 -0.6462
                    CHANNELS 6 Xposition Yposition Zposition Zrotation Xrotation Yrotation
                    JOINT RightFinger42
                    {
                      OFFSET 0.3574 -1.7166 -0.4742
                      CHANNELS 6 Xposition Yposition Zposition Zrotation Xrotation Yrotation
                      End Site
                      {
                        OFFSET 0.4187 -1.5237 -0.3496
                      }
                    }
                  }
                }
                JOINT RightFinger0
                {
                  OFFSET 1.4199 -1.8761 1.4221
                  CHANNELS 6 Xposition Yposition Zposition Zrotation Xrotation Yrotation
                  JOINT RightFinger01
                  {
                    OFFSET 1.1472 -3.4929 2.6336
                    CHANNELS 6 Xposition Yposition Zposition Zrotation Xrotation Yrotation
                    JOINT RightFinger02
                    {
                      OFFSET 0.8229 -2.3 1.6571
                      CHANNELS 6 Xposition Yposition Zposition Zrotation Xrotation Yrotation
                      End Site
                      {
                        OFFSET 0.5822 -1.6914 1.1582
                      }
                    }
                  }
                }
              }
            }
          }
        }
      }
    }
  }
  JOINT RightHip
  {
    OFFSET -9.412 3.9771 -0.7758
    CHANNELS 6 Xposition Yposition Zposition Zrotation Xrotation Yrotation
    JOINT RightKnee
    {
      OFFSET -0.7531 -40.938 0
      CHANNELS 6 Xposition Yposition Zposition Zrotation Xrotation Yrotation
      JOINT RightAnkle
      {
        OFFSET 0 -40.1986 0
        CHANNELS 6 Xposition Yposition Zposition Zrotation Xrotation Yrotation
        JOINT RightToe
        {
          OFFSET 0 -4.4182 9.239
          CHANNELS 6 Xposition Yposition Zposition Zrotation Xrotation Yrotation
          End Site
          {
            OFFSET 0 0 6.1981
          }
        }
      }
    }
  }
  JOINT LeftHip
  {
    OFFSET 9.4119 3.9773 -0.7758
    CHANNELS 6 Xposition Yposition Zposition Zrotation Xrotation Yrotation
    JOINT LeftKnee
    {
      OFFSET 0.7532 -40.9383 0
      CHANNELS 6 Xposition Yposition Zposition Zrotation Xrotation Yrotation
      JOINT LeftAnkle
      {
        OFFSET 0 -40.1986 0
        CHANNELS 6 Xposition Yposition Zposition Zrotation Xrotation Yrotation
        JOINT LeftToe
        {
          OFFSET 0 -4.4182 9.239
          CHANNELS 6 Xposition Yposition Zposition Zrotation Xrotation Yrotation
          End Site
          {
            OFFSET 0 0 6.1981
          }
        }
      }
    }
  }
}
MOTION
Frames:	4
Frame Time:	0.0333333
0.859004 70.1293 15.887 -5.98088e-015 8.39755 180 1.11022e-016 8.7983 -4.7612 -0.491452 4.54963 -0.228056 -2.22045e-016 8.0291 0.4195 -0.969277 9.10101 -0.418803 -4.44089e-016 9.9351 -2.2114 -0.969279 9.10104 -0.418804 0 22.3885 -0.4656 24.7428 -13.6531 5.20621 -0.0001 12.643 3.4389 11.3452 -14.1297 -25.1969 2.2603 21.606 7.4023 -16.1513 -20.6543 -38.7992 13.5163 -1.1332 -5.0146 90.2969 -33.2038 34.7636 -0.0995 -28.05 -0.2431 -61.6091 -45.1145 -30.8837 0.0679 -23.3996 -0.1402 -26.017 15.0312 18.6231 0.7932 -9.069 2.5189 -3.18055e-015 3.18055e-015 -3.18055e-015 -0.8272 -3.3923 0.5977 -6.62086e-031 -4.77083e-015 -7.95139e-015 -0.5649 -2.3158 0.4082 -3.18055e-015 4.77083e-015 -6.36111e-015 0.9159 -9.2044 0.2193 -3.18055e-015 3.18055e-015 -3.18055e-015 0.0117 -4.1944 -0.0248 -0.0128052 0.00232467 9.30339e-005 0.0071 -2.3249 -0.0142 3.18055e-015 -1.59028e-015 -4.77083e-015 0.6113 -8.7231 -2.0637 -3.18055e-015 3.18055e-015 -3.18055e-015 -0.1927 -3.8059 -0.2383 -0.0160336 0.00298757 0.000854557 -0.1091 -2.1688 -0.1362 -9.54166e-015 -1.59028e-015 -0 -0.6151 -8.0947 -3.5641 -3.18055e-015 3.18055e-015 -3.18055e-015 -0.4882 -2.341 -0.6462 -0.0126159 0.00313407 0.00283667 -0.3575 -1.7167 -0.4742 1.59028e-014 4.77083e-015 -0 -1.42 -1.8761 1.4223 -3.18055e-015 3.18055e-015 -3.18055e-015 -1.1471 -3.4929 2.6334 -6.62086e-031 -4.77083e-015 -7.95139e-015 -0.823 -2.3 1.6571 -3.18055e-015 4.77083e-015 -6.36111e-015 -2.2603 21.606 7.4023 0.919341 -4.06486 7.55014 -13.5187 -1.1334 -5.0155 -19.8025 -23.3324 -9.08328 0.0994 -28.0499 -0.2431 25.3726 -17.2989 6.73238 -0.0679 -23.3996 -0.1402 0.247332 -2.83218 0.854881 -0.7932 -9.0691 2.5189 3.18055e-015 0 6.36111e-015 0.8272 -3.3923 0.5977 1.59028e-015 -3.18055e-015 6.36111e-015 0.565 -2.3158 0.4082 4.77083e-015 -6.36111e-015 4.77083e-015 -0.916 -9.2044 0.2193 3.18055e-015 0 6.36111e-015 -0.0117 -4.1944 -0.0248 0.0129627 0.00232019 -8.34693e-005 -0.0071 -2.3249 -0.0142 -3.47662e-007 -3.47665e-006 2.46655e-007 -0.6113 -8.7231 -2.0637 3.18055e-015 0 6.36111e-015 0.1927 -3.8059 -0.2383 0.0163138 0.00303131 -0.000869196 0.1091 -2.1688 -0.1362 -5.95069e-007 2.60183e-008 -1.61274e-006 0.6151 -8.0947 -3.564 3.18055e-015 0 6.36111e-015 0.4882 -2.341 -0.6462 0.014575 0.00367736 -0.00326109 0.3574 -1.7166 -0.4742 -1.59028e-015 3.18055e-015 -4.77083e-015 1.4199 -1.8761 1.4221 3.18055e-015 0 6.36111e-015 1.1472 -3.4929 2.6336 1.59028e-015 -3.18055e-015 6.36111e-015 0.8229 -2.3 1.6571 4.77083e-015 -6.36111e-015 4.77083e-015 -9.412 3.9771 -0.7758 177.704 -24.9425 177.611 -0.7531 -40.938 0 -0.0340946 17.7235 0.232677 0 -40.1986 0 -7.59439 1.32919 -0.589308 0 -4.4182 9.239 4.69286e-007 3.09151e-009 7.48354e-008 9.4119 3.9773 -0.7758 -2.09985 13.6978 0.548062 0.7532 -40.9383 0 -3.569 4.32497 0.684841 -8.88178e-016 -40.1986 0 10.5389 4.31703 0.166934 4.44089e-016 -4.4182 9.239 -4.25514e-007 5.48921e-009 -5.12606e-008 
0.858485 70.1043 15.9762 -6.03106e-015 7.99615 180 1.11022e-016 8.7983 -4.7612 -0.491483 4.45613 -0.229159 4.44089e-016 8.0291 0.4195 -0.969447 8.91408 -0.421758 0 9.9351 -2.2114 -0.969448 8.91408 -0.421759 -8.88178e-016 22.3885 -0.4656 24.7926 -14.0902 5.41396 -0.0001 12.643 3.4389 11.36 -14.4203 -25.1367 2.2603 21.606 7.4023 -16.171 -20.5626 -38.6366 13.5163 -1.1332 -5.0146 90.294 -33.1907 34.7619 -0.0995 -28.05 -0.2431 -61.9035 -45.1974 -31.1021 0.0679 -23.3996 -0.1402 -25.9439 15.1502 18.6527 0.7932 -9.069 2.5189 -9.54166e-015 -9.54166e-015 6.36111e-015 -0.8272 -3.3923 0.5977 -6.36111e-015 7.95139e-015 3.18055e-015 -0.5649 -2.3158 0.4082 -1.59028e-014 3.18055e-015 -3.18055e-015 0.9159 -9.2044 0.2193 -9.54166e-015 -9.54166e-015 6.36111e-015 0.0117 -4.1944 -0.0248 -0.0128191 0.00231801 8.19533e-005 0.0071 -2.3249 -0.0142 8.05638e-006 1.74519e-007 4.45699e-006 0.6113 -8.7231 -2.0637 -9.54166e-015 -9.54166e-015 6.36111e-015 -0.1927 -3.8059 -0.2383 -0.0160466 0.0030011 0.000863894 -0.1091 -2.1688 -0.1362 1.03924e-006 -4.87963e-006 -2.76215e-006 -0.6151 -8.0947 -3.5641 -9.54166e-015 -9.54166e-015 6.36111e-015 -0.4882 -2.341 -0.6462 -0.0126609 0.00313245 0.00284265 -0.3575 -1.7167 -0.4742 6.36111e-015 -1.59028e-015 -3.18055e-015 -1.42 -1.8761 1.4223 -9.54166e-015 -9.54166e-015 6.36111e-015 -1.1471 -3.4929 2.6334 -6.36111e-015 7.95139e-015 3.18055e-015 -0.823 -2.3 1.6571 -1.59028e-014 3.18055e-015 -3.18055e-015 -2.2603 21.606 7.4023 0.915311 -3.91199 7.509 -13.5187 -1.1334 -5.0155 -19.8025 -23.3325 -9.08328 0.0994 -28.0499 -0.2431 25.4503 -17.3452 6.76207 -0.0679 -23.3996 -0.1402 0.202985 -2.88668 0.900752 -0.7932 -9.0691 2.5189 -5.95939e-007 2.61483e-008 -1.61236e-006 0.8272 -3.3923 0.5977 -1.76278e-006 2.50151e-008 -1.80147e-006 0.565 -2.3158 0.4082 1.76556e-031 -3.18055e-015 3.18055e-015 -0.916 -9.2044 0.2193 -5.95939e-007 2.61483e-008 -1.61236e-006 -0.0117 -4.1944 -0.0248 0.0129307 0.00230987 -8.37326e-005 -0.0071 -2.3249 -0.0142 -1.08207e-006 -3.99287e-006 -1.23512e-006 -0.6113 -8.7231 -2.0637 -5.95939e-007 2.61483e-008 -1.61236e-006 0.1927 -3.8059 -0.2383 0.0163347 0.0030411 -0.000875203 0.1091 -2.1688 -0.1362 1.76556e-031 3.18055e-015 -3.18055e-015 0.6151 -8.0947 -3.564 -5.95939e-007 2.61483e-008 -1.61236e-006 0.4882 -2.341 -0.6462 0.0145847 0.00368367 -0.00326324 0.3574 -1.7166 -0.4742 4.77083e-015 -3.65159e-006 1.59028e-015 1.4199 -1.8761 1.4221 -5.95939e-007 2.61483e-008 -1.61236e-006 1.1472 -3.4929 2.6336 -1.76278e-006 2.50151e-008 -1.80147e-006 0.8229 -2.3 1.6571 1.76556e-031 -3.18055e-015 3.18055e-015 -9.412 3.9771 -0.7758 177.744 -24.7909 177.66 -0.7531 -40.938 0 0.0547993 17.2748 0.203179 1.77636e-015 -40.1986 0 -7.63579 1.52803 -0.563933 -1.77636e-015 -4.4182 9.239 -1.15979e-006 -2.614e-006 -5.71575e-007 9.4119 3.9773 -0.7758 -2.1225 13.1958 0.552707 0.7532 -40.9383 3.55271e-015 -3.52169 4.43228 0.673726 8.88178e-016 -40.1986 0 10.525 4.22709 0.182882 0 -4.4182 9.239 6.41143e-009 -1.85263e-010 -2.58981e-008 
0.857958 70.0796 16.0655 -6.08113e-015 7.59479 180 0 8.7983 -4.7612 -0.491479 4.36267 -0.230261 0 8.0291 0.4195 -0.969548 8.72713 -0.424712 4.44089e-016 9.9351 -2.2114 -0.96955 8.72716 -0.424712 0 22.3885 -0.4656 24.8441 -14.5269 5.62237 -0.0001 12.643 3.4389 11.3752 -14.7109 -25.0764 2.2603 21.606 7.4023 -16.191 -20.4709 -38.474 13.5163 -1.1332 -5.0146 90.2919 -33.1779 34.7605 -0.0995 -28.05 -0.2431 -62.1987 -45.2793 -31.3206 0.0679 -23.3996 -0.1402 -25.8709 15.2692 18.6821 0.7932 -9.069 2.5189 -2.34891e-006 -2.38476e-006 1.87347e-006 -0.8272 -3.3923 0.5977 1.92929e-006 -2.16371e-006 -9.27511e-007 -0.5649 -2.3158 0.4082 -1.06771e-005 -3.6638e-006 -6.24702e-006 0.9159 -9.2044 0.2193 -2.34891e-006 -2.38476e-006 1.87347e-006 0.0117 -4.1944 -0.0248 -0.0127707 0.00231489 8.72927e-005 0.0071 -2.3249 -0.0142 -1.06762e-005 -3.66292e-006 -6.24745e-006 0.6113 -8.7231 -2.0637 -2.34891e-006 -2.38476e-006 1.87347e-006 -0.1927 -3.8059 -0.2383 -0.0160372 0.00299765 0.000847329 -0.1091 -2.1688 -0.1362 -3.18055e-015 7.95139e-015 -1.59028e-015 -0.6151 -8.0947 -3.5641 -2.34891e-006 -2.38476e-006 1.87347e-006 -0.4882 -2.341 -0.6462 -0.012553 0.0031184 0.00280883 -0.3575 -1.7167 -0.4742 -2.96856e-006 -4.25466e-006 3.69057e-006 -1.42 -1.8761 1.4223 -2.34891e-006 -2.38476e-006 1.87347e-006 -1.1471 -3.4929 2.6334 1.92929e-006 -2.16371e-006 -9.27511e-007 -0.823 -2.3 1.6571 -1.06771e-005 -3.6638e-006 -6.24702e-006 -2.2603 21.606 7.4023 0.911478 -3.75914 7.46787 -13.5187 -1.1334 -5.0155 -19.8025 -23.3325 -9.08326 0.0994 -28.0499 -0.2431 25.5281 -17.3915 6.79183 -0.0679 -23.3996 -0.1402 0.158684 -2.94114 0.946591 -0.7932 -9.0691 2.5189 2.22639e-014 -1.59028e-014 -1.11319e-014 0.8272 -3.3923 0.5977 2.06736e-014 -6.36111e-015 -1.59028e-014 0.565 -2.3158 0.4082 -3.51429e-006 4.1696e-007 4.93619e-007 -0.916 -9.2044 0.2193 2.22639e-014 -1.59028e-014 -1.11319e-014 -0.0117 -4.1944 -0.0248 0.0129483 0.00231446 -8.87086e-005 -0.0071 -2.3249 -0.0142 9.43907e-007 3.52315e-006 1.36507e-006 -0.6113 -8.7231 -2.0637 2.22639e-014 -1.59028e-014 -1.11319e-014 0.1927 -3.8059 -0.2383 0.0163584 0.00304058 -0.000872137 0.1091 -2.1688 -0.1362 -1.59028e-015 3.18055e-015 1.59028e-015 0.6151 -8.0947 -3.564 2.22639e-014 -1.59028e-014 -1.11319e-014 0.4882 -2.341 -0.6462 0.0145607 0.00367514 -0.00325665 0.3574 -1.7166 -0.4742 5.96417e-007 4.53522e-008 1.61207e-006 1.4199 -1.8761 1.4221 2.22639e-014 -1.59028e-014 -1.11319e-014 1.1472 -3.4929 2.6336 2.06736e-014 -6.36111e-015 -1.59028e-014 0.8229 -2.3 1.6571 -3.51429e-006 4.1696e-007 4.93619e-007 -9.412 3.9771 -0.7758 177.784 -24.6485 177.708 -0.7531 -40.938 0 0.143975 16.8156 0.174507 1.77636e-015 -40.1986 0 -7.6776 1.72811 -0.538293 -8.88178e-016 -4.4182 9.239 5.96354e-016 4.09328e-006 -7.95139e-016 9.4119 3.9773 -0.7758 -2.14542 12.7121 0.557571 0.7532 -40.9383 0 -3.47411 4.52184 0.661121 8.88178e-016 -40.1986 0 10.5111 4.13674 0.198807 -8.88178e-016 -4.4182 9.239 1.63889e-006 -1.16143e-006 4.59022e-007 
0.857425 70.0553 16.1552 -6.13111e-015 7.19345 180 0 8.7983 -4.7612 -0.491482 4.2692 -0.231363 0 8.0291 0.4195 -0.969674 8.54022 -0.427665 0 9.9351 -2.2114 -0.969677 8.54023 -0.427666 0 22.3885 -0.4656 24.8973 -14.9631 5.83149 -0.0001 12.643 3.4389 11.3907 -15.0014 -25.0158 2.2603 21.606 7.4023 -16.2112 -20.3793 -38.3116 13.5163 -1.1332 -5.0146 90.289 -33.1648 34.7588 -0.0995 -28.05 -0.2431 -62.4948 -45.3606 -31.5408 0.0679 -23.3996 -0.1402 -25.7979 15.3882 18.7114 0.7932 -9.069 2.5189 6.36111e-015 6.36111e-015 -9.54166e-015 -0.8272 -3.3923 0.5977 6.36111e-015 1.27222e-014 -1.27222e-014 -0.5649 -2.3158 0.4082 6.36111e-015 9.54166e-015 -1.11319e-014 0.9159 -9.2044 0.2193 6.36111e-015 6.36111e-015 -9.54166e-015 0.0117 -4.1944 -0.0248 -0.0128307 0.00232938 9.06262e-005 0.0071 -2.3249 -0.0142 -3.18055e-015 3.18055e-015 -3.18055e-015 0.6113 -8.7231 -2.0637 6.36111e-015 6.36111e-015 -9.54166e-015 -0.1927 -3.8059 -0.2383 -0.0160526 0.00299585 0.000858568 -0.1091 -2.1688 -0.1362 3.18055e-015 -1.03593e-005 -0 -0.6151 -8.0947 -3.5641 6.36111e-015 6.36111e-015 -9.54166e-015 -0.4882 -2.341 -0.6462 -0.0125061 0.0031044 0.00280811 -0.3575 -1.7167 -0.4742 9.54166e-015 -7.95139e-015 9.54166e-015 -1.42 -1.8761 1.4223 6.36111e-015 6.36111e-015 -9.54166e-015 -1.1471 -3.4929 2.6334 6.36111e-015 1.27222e-014 -1.27222e-014 -0.823 -2.3 1.6571 6.36111e-015 9.54166e-015 -1.11319e-014 -2.2603 21.606 7.4023 0.907846 -3.6063 7.42676 -13.5187 -1.1334 -5.0155 -19.8025 -23.3324 -9.08325 0.0994 -28.0499 -0.2431 25.606 -17.4378 6.82171 -0.0679 -23.3996 -0.1402 0.1144 -2.99567 0.992397 -0.7932 -9.0691 2.5189 3.47325e-007 -1.03207e-007 -2.47144e-007 0.8272 -3.3923 0.5977 1.45801e-006 7.25821e-007 4.02368e-006 0.565 -2.3158 0.4082 -1.59028e-015 -6.36111e-015 -0 -0.916 -9.2044 0.2193 3.47325e-007 -1.03207e-007 -2.47144e-007 -0.0117 -4.1944 -0.0248 0.0129338 0.00231572 -8.72303e-005 -0.0071 -2.3249 -0.0142 -3.18055e-015 -6.36111e-015 -1.59028e-015 -0.6113 -8.7231 -2.0637 3.47325e-007 -1.03207e-007 -2.47144e-007 0.1927 -3.8059 -0.2383 0.01636 0.00303632 -0.000869666 0.1091 -2.1688 -0.1362 2.05666e-006 -5.76715e-006 -4.51812e-006 0.6151 -8.0947 -3.564 3.47325e-007 -1.03207e-007 -2.47144e-007 0.4882 -2.341 -0.6462 0.0145506 0.00367518 -0.00325389 0.3574 -1.7166 -0.4742 1.0135e-006 -2.06389e-006 6.37672e-006 1.4199 -1.8761 1.4221 3.47325e-007 -1.03207e-007 -2.47144e-007 1.1472 -3.4929 2.6336 1.45801e-006 7.25821e-007 4.02368e-006 0.8229 -2.3 1.6571 -1.59028e-015 -6.36111e-015 -0 -9.412 3.9771 -0.7758 177.824 -24.4993 177.757 -0.7531 -40.938 -7.10543e-015 0.233088 16.3621 0.146465 1.77636e-015 -40.1986 0 -7.71982 1.92918 -0.512473 -8.88178e-016 -4.4182 9.239 1.2403e-007 2.78561e-006 -1.73541e-007 9.4119 3.9773 -0.7758 -2.16813 12.2191 0.561965 0.7532 -40.9383 0 -3.42657 4.619 0.649123 0 -40.1986 0 10.4973 4.04809 0.214507 4.44089e-016 -4.4182 9.239 6.33496e-009 8.2929e-007 -2.5917e-008 
